<svg xmlns="http://www.w3.org/2000/svg" viewBox="0 0 960 540" role="img" aria-label="">
  <defs>
    <linearGradient id="bg" x1="0" y1="0" x2="1" y2="1">
      <stop offset="0" stop-color="#f7fbfd"/>
      <stop offset="1" stop-color="#dfeef6"/>
    </linearGradient>
    <linearGradient id="accent" x1="0" y1="0" x2="1" y2="1">
      <stop offset="0" stop-color="#3a6ea5"/>
      <stop offset="1" stop-color="#17756a"/>
    </linearGradient>
  </defs>
  <rect width="960" height="540" fill="url(#bg)"/>
  <path d="M64 438C192 356 274 444 394 374c105-61 150-189 302-171 74 9 128 49 200 16v321H64Z" fill="#3a6ea5" opacity=".10"/>
  <g fill="none" stroke="#3a6ea5" stroke-width="8" stroke-linecap="round" stroke-linejoin="round" opacity=".9">
    <path d="M174 294h150M324 294l108-82M324 294l108 82M432 212h140M432 376h140M572 212l118 70M572 376l118-70"/>
    <path d="M690 282h94"/>
  </g>
  <g>
    <circle cx="174" cy="294" r="34" fill="#fff" stroke="#3a6ea5" stroke-width="8"/>
    <circle cx="324" cy="294" r="34" fill="#fff" stroke="#3a6ea5" stroke-width="8"/>
    <circle cx="432" cy="212" r="34" fill="#fff" stroke="#3a6ea5" stroke-width="8"/>
    <circle cx="432" cy="376" r="34" fill="#fff" stroke="#3a6ea5" stroke-width="8"/>
    <circle cx="572" cy="212" r="34" fill="#fff" stroke="#3a6ea5" stroke-width="8"/>
    <circle cx="572" cy="376" r="34" fill="#fff" stroke="#3a6ea5" stroke-width="8"/>
    <circle cx="690" cy="282" r="40" fill="url(#accent)"/>
    <circle cx="784" cy="282" r="30" fill="#cf7a4d"/>
  </g>
  <g fill="#17756a" opacity=".24">
    <rect x="118" y="98" width="108" height="12" rx="6"/>
    <rect x="118" y="126" width="178" height="12" rx="6"/>
    <rect x="118" y="154" width="138" height="12" rx="6"/>
  </g>
</svg>
