<!-- Original placeholder crest (not an official mark). Replace this file with
     Cardiff University's official logo (same filename) to display it app-wide. -->
<svg xmlns="http://www.w3.org/2000/svg" viewBox="0 0 120 140" width="120" height="140">
  <defs>
    <linearGradient id="cg" x1="0" y1="0" x2="0" y2="1">
      <stop offset="0" stop-color="#1c8a7c"/>
      <stop offset="1" stop-color="#12655c"/>
    </linearGradient>
  </defs>
  <path d="M60 6 108 20 V70 C108 104 86 124 60 134 C34 124 12 104 12 70 V20 Z"
        fill="url(#cg)" stroke="#0e5149" stroke-width="3"/>
  <path d="M60 16 99 27 V70 C99 98 80 116 60 124 C40 116 21 98 21 70 V27 Z"
        fill="none" stroke="#ffffff" stroke-opacity="0.45" stroke-width="2"/>
  <g fill="#ffd479">
    <path d="M42 40 l1.9 3.9 4.3.6 -3.1 3 .8 4.3 -3.9-2 -3.9 2 .8-4.3 -3.1-3 4.3-.6 Z"/>
    <path d="M60 34 l2.1 4.3 4.7.7 -3.4 3.3 .8 4.7 -4.2-2.2 -4.2 2.2 .8-4.7 -3.4-3.3 4.7-.7 Z"/>
    <path d="M78 40 l1.9 3.9 4.3.6 -3.1 3 .8 4.3 -3.9-2 -3.9 2 .8-4.3 -3.1-3 4.3-.6 Z"/>
  </g>
  <path d="M32 78 C43 71 54 71 60 76 C66 71 77 71 88 78 L88 98 C77 91 66 91 60 96 C54 91 43 91 32 98 Z"
        fill="#ffffff"/>
  <path d="M60 76 V96" stroke="#12655c" stroke-width="2"/>
  <path d="M40 84 h14 M40 89 h14 M66 84 h14 M66 89 h14" stroke="#9fcfc7" stroke-width="1.6" stroke-linecap="round"/>
</svg>
